HIERARCHY
ROOT Hips
{
	OFFSET	0.00	0.00	0.00
	CHANNELS 6 Xposition Yposition Zposition Zrotation Xrotation Yrotation
	JOINT LeftUpLeg
	{
		OFFSET	 0.126116	-0.014019	-0.065224
		CHANNELS 3 Zrotation Xrotation Yrotation
		JOINT LeftLeg
		{
			OFFSET	 0.000000	 0.000000	 0.569914
			CHANNELS 3 Zrotation Xrotation Yrotation
			JOINT LeftFoot
			{
				OFFSET	 0.000000	 0.000000	 0.544423
				CHANNELS 3 Zrotation Xrotation Yrotation
				JOINT LeftToeBase
				{
					OFFSET	 0.000000	 0.000000	 0.207117
					CHANNELS 3 Zrotation Xrotation Yrotation
					End Site
					{
						OFFSET	 0.000000	 0.000000	 0.207117
					}
				}
			}
		}
	}
	JOINT RightUpLeg
	{
		OFFSET	-0.124023	-0.008373	-0.065224
		CHANNELS 3 Zrotation Xrotation Yrotation
		JOINT RightLeg
		{
			OFFSET	 0.000000	 0.000000	 0.570047
			CHANNELS 3 Zrotation Xrotation Yrotation
			JOINT RightFoot
			{
				OFFSET	 0.000000	 0.000000	 0.544354
				CHANNELS 3 Zrotation Xrotation Yrotation
				JOINT RightToeBase
				{
					OFFSET	 0.000000	 0.000000	 0.207540
					CHANNELS 3 Zrotation Xrotation Yrotation
					End Site
					{
						OFFSET	 0.000000	 0.000000	 0.207540
					}
				}
			}
		}
	}
	JOINT Spine
	{
		OFFSET	 0.000184	-0.007763	 0.117403
		CHANNELS 3 Zrotation Xrotation Yrotation
		JOINT Spine1
		{
			OFFSET	 0.000000	 0.000000	 0.137269
			CHANNELS 3 Zrotation Xrotation Yrotation
			JOINT Spine2
			{
				OFFSET	 0.000000	 0.000000	 0.156879
				CHANNELS 3 Zrotation Xrotation Yrotation
				JOINT LeftShoulder
				{
					OFFSET	 0.080501	-0.002496	 0.160144
					CHANNELS 3 Zrotation Xrotation Yrotation
					JOINT LeftArm
					{
						OFFSET	 0.000000	 0.000000	 0.164363
						CHANNELS 3 Zrotation Xrotation Yrotation
						JOINT LeftForeArm
						{
							OFFSET	 0.000000	 0.000000	 0.364576
							CHANNELS 3 Zrotation Xrotation Yrotation
							JOINT LeftHand
							{
								OFFSET	 0.000000	 0.000000	 0.360812
								CHANNELS 3 Zrotation Xrotation Yrotation
								JOINT LeftHandIndex1
								{
									OFFSET	 0.000000	 0.000000	 0.086006
									CHANNELS 3 Zrotation Xrotation Yrotation
									JOINT LeftHandIndex2
									{
										OFFSET	 0.000000	 0.000000	 0.047237
										CHANNELS 3 Zrotation Xrotation Yrotation
										JOINT LeftHandIndex3
										{
											OFFSET	-0.004284	-0.000551	 0.038165
											CHANNELS 3 Zrotation Xrotation Yrotation
											End Site
											{
												OFFSET	-0.004284	-0.000551	 0.038165
											}
										}
									}
								}
							}
						}
					}
				}
				JOINT Neck
				{
					OFFSET	 0.000000	 0.000000	 0.176489
					CHANNELS 3 Zrotation Xrotation Yrotation
					JOINT Head
					{
						OFFSET	 0.000000	-0.001747	 0.077940
						CHANNELS 3 Zrotation Xrotation Yrotation
						End Site
						{
							OFFSET	 0.000000	-0.001747	 0.077940
						}
					}
				}
				JOINT RightShoulder
				{
					OFFSET	-0.080363	 0.000306	 0.159706
					CHANNELS 3 Zrotation Xrotation Yrotation
					JOINT RightArm
					{
						OFFSET	 0.000000	 0.000000	 0.164196
						CHANNELS 3 Zrotation Xrotation Yrotation
						JOINT RightForeArm
						{
							OFFSET	 0.000000	 0.000000	 0.365611
							CHANNELS 3 Zrotation Xrotation Yrotation
							JOINT RightHand
							{
								OFFSET	 0.000000	 0.000000	 0.360648
								CHANNELS 3 Zrotation Xrotation Yrotation
								JOINT RightHandIndex1
								{
									OFFSET	 0.000000	 0.000000	 0.069977
									CHANNELS 3 Zrotation Xrotation Yrotation
									JOINT RightHandIndex2
									{
										OFFSET	 0.000000	 0.000000	 0.052305
										CHANNELS 3 Zrotation Xrotation Yrotation
										JOINT RightHandIndex3
										{
											OFFSET	 0.009002	-0.000782	 0.042196
											CHANNELS 3 Zrotation Xrotation Yrotation
											End Site
											{
												OFFSET	 0.009002	-0.000782	 0.042196
											}
										}
									}
								}
							}
						}
					}
				}
			}
		}
	}
}
MOTION
Frames:    10
Frame Time: 0.03333334
-0.719325	-0.032010	 1.269405	 169.582600	-11.542010	-0.853754	-28.840420	 1.765898	-166.362600	-2.042064	-28.754350	-1.688055	 13.566300	 74.656460	-28.450870	-2.385833	 28.452760	 0.000004	 3.431703	 3.116648	-178.799300	 10.162920	-33.160440	 5.723436	-74.755160	 81.777300	 76.748010	 2.384659	 28.388700	-0.000001	 10.065090	 10.295480	-12.534710	 3.813324	 7.281229	-6.561131	 12.388220	-0.304240	 9.944115	-91.776200	 78.527420	-180.000000	-10.430600	 50.164510	-19.741810	-24.800560	 20.222350	-71.996580	-38.488910	-37.156440	-22.289050	-4.130354	 21.526190	 0.991307	-5.167926	 0.731697	 3.519349	-1.378229	 35.397820	-2.634230	 14.468460	 6.141233	-2.251148	 9.390963	-13.299260	-1.595742	 89.782170	 78.203900	 179.999900	-49.679490	 4.636317	 92.381420	 10.595640	 1.510826	 130.749900	 17.635500	 7.688518	 6.386141	 5.716295	 19.173350	-3.684826	 5.027458	 0.246833	-9.377971	-2.350882	 35.473990	 5.254307
-0.719586	-0.033165	 1.268860	 168.931200	-11.598780	-0.083163	-29.242200	 1.780108	-166.613300	-1.746502	-28.979860	-1.556545	 12.617850	 74.251000	-27.777110	-2.385833	 28.452760	 0.000004	 2.835338	 2.900344	-178.966500	 10.496430	-33.112240	 5.902672	-73.399610	 81.923970	 75.047870	 2.384659	 28.388700	-0.000001	 12.009270	 9.855223	-14.844430	 4.638210	 8.338495	-6.741186	 12.543520	-2.284384	 12.417970	-91.776250	 78.527420	-179.999900	-18.084130	 45.156460	-19.375140	-24.291430	 21.136560	-74.007580	-39.894430	-37.349540	-23.153810	-4.130354	 21.526190	 0.991307	-5.167926	 0.731697	 3.519349	-1.378229	 35.397820	-2.634230	 14.861480	 5.135198	-3.768584	 9.063529	-14.095150	-4.177297	 89.782140	 78.203890	 180.000000	-51.078570	 3.984581	 93.752010	 11.466500	 0.532046	 128.985700	 12.923770	 9.093442	 7.677984	 5.716295	 19.173350	-3.684826	 5.027458	 0.246833	-9.377971	-2.350882	 35.473990	 5.254307
-0.718428	-0.034026	 1.267968	 168.567900	-11.459640	 0.118978	-29.928360	 1.287131	-166.436200	-1.512989	-28.932770	-1.441017	 12.514310	 73.953080	-27.853790	-2.385833	 28.452760	 0.000004	 2.283282	 2.433249	-178.584600	 10.788640	-33.227120	 6.084915	-71.705390	 82.180400	 73.103000	 2.384659	 28.388700	-0.000001	 13.454490	 8.877272	-15.328750	 5.436402	 9.635801	-6.359329	 12.712610	-4.052812	 12.606030	-91.776210	 78.527400	-180.000000	-25.333510	 41.667930	-21.225790	-24.132150	 21.523330	-74.675320	-41.280340	-37.732960	-24.138140	-4.130354	 21.526190	 0.991307	-5.167926	 0.731697	 3.519349	-1.378229	 35.397820	-2.634230	 15.057310	 5.248610	-4.384122	 8.914008	-15.484930	-4.324808	 89.782100	 78.203890	-180.000000	-50.785220	 3.067505	 94.760420	 12.184950	-0.374702	 127.538200	 8.938191	 9.477038	 8.514178	 5.716295	 19.173350	-3.684826	 5.027458	 0.246833	-9.377971	-2.350882	 35.473990	 5.254307
-0.717110	-0.034431	 1.267324	 168.143000	-11.173630	-0.104469	-30.783750	 0.927171	-166.136200	-1.280107	-28.442790	-1.307559	 11.994820	 73.415810	-27.438310	-2.385833	 28.452760	 0.000004	 1.698246	 1.776457	-178.096300	 11.124940	-33.691060	 6.350862	-74.577960	 82.509180	 75.786280	 2.384659	 28.388700	-0.000001	 15.278650	 7.456074	-15.449200	 6.673649	 10.758270	-6.090172	 12.789530	-5.649422	 12.575190	-91.776180	 78.527380	-180.000000	-32.025280	 38.962200	-26.175850	-24.545330	 21.681940	-73.729990	-42.763440	-38.070180	-25.063790	-4.130354	 21.526190	 0.991307	-5.167926	 0.731697	 3.519349	-1.378229	 35.397820	-2.634230	 15.162450	 5.797285	-4.875444	 8.847433	-17.372940	-4.118054	 89.782140	 78.203870	 180.000000	-49.290950	 2.009860	 95.896420	 13.153670	-1.743939	 125.783000	 4.316687	 9.621359	 8.915894	 5.716295	 19.173350	-3.684826	 5.027458	 0.246833	-9.377971	-2.350882	 35.473990	 5.254307
-0.717601	-0.034284	 1.267507	 167.728200	-10.929200	-0.201816	-31.561810	 0.797657	-165.886000	-1.050238	-28.007270	-1.181056	 11.495260	 72.942550	-27.058760	-2.385833	 28.452760	 0.000004	 1.190093	 1.447434	-177.764700	 11.407170	-33.859240	 6.540241	-77.229950	 82.715840	 78.253650	 2.384659	 28.388700	-0.000001	 16.996570	 6.290698	-15.920020	 7.852394	 11.631070	-6.368752	 12.855480	-6.888775	 13.087330	-91.776170	 78.527420	-180.000000	-36.100290	 37.042820	-32.361150	-25.672420	 21.503030	-70.782780	-43.675210	-38.181060	-25.411030	-4.130354	 21.526190	 0.991307	-5.167926	 0.731697	 3.519349	-1.378229	 35.397820	-2.634230	 15.150280	 5.923794	-5.215776	 8.757993	-18.694080	-4.318076	 89.782100	 78.203820	-180.000000	-47.970840	 0.928000	 96.859700	 14.064010	-3.239460	 123.806400	-0.155692	 10.072920	 9.527140	 5.716295	 19.173350	-3.684826	 5.027458	 0.246833	-9.377971	-2.350882	 35.473990	 5.254307
-0.720096	-0.033315	 1.268389	 167.327200	-10.856800	 0.055035	-32.606610	 0.877646	-165.611400	-0.729564	-27.957040	-1.028580	 12.588020	 73.315060	-28.425540	-2.385833	 28.452760	 0.000004	 0.458693	 1.750569	-177.656000	 11.633720	-33.363910	 6.584744	-77.130560	 82.802330	 77.939440	 2.384659	 28.388700	-0.000001	 18.757530	 5.212941	-16.710860	 9.288618	 12.229400	-7.676086	 12.853360	-7.591550	 13.790950	-91.776150	 78.527360	 180.000000	-38.923680	 36.442590	-39.030090	-26.977900	 21.019630	-67.169780	-44.707860	-38.495830	-25.825400	-4.130354	 21.526190	 0.991307	-5.167926	 0.731697	 3.519349	-1.378229	 35.397820	-2.634230	 14.897430	 5.265044	-5.092818	 8.554988	-18.918800	-4.613760	 89.782040	 78.203830	-180.000000	-46.513480	-0.571060	 97.787060	 14.825420	-4.870507	 121.068600	-5.009061	 10.263970	 10.322620	 5.716295	 19.173350	-3.684826	 5.027458	 0.246833	-9.377971	-2.350882	 35.473990	 5.254307
-0.723155	-0.032273	 1.269654	 166.998300	-10.805120	 0.165379	-33.031460	 0.879380	-165.448200	-0.539500	-27.695180	-0.931281	 12.205960	 72.800220	-28.035790	-2.385833	 28.452760	 0.000004	-0.169859	 1.466700	-177.378400	 11.952500	-33.427170	 6.776752	-79.713230	 82.930560	 80.424650	 2.384659	 28.388700	-0.000001	 20.663760	 3.913951	-17.402630	 10.933320	 12.732050	-9.040616	 12.639590	-8.364099	 14.482860	-91.776150	 78.527380	 180.000000	-39.534910	 35.511800	-45.411750	-28.352580	 20.339170	-63.192280	-44.925220	-38.551300	-25.509600	-4.130354	 21.526190	 0.991307	-5.167926	 0.731697	 3.519349	-1.378229	 35.397820	-2.634230	 14.486080	 5.620730	-4.851921	 8.187226	-20.616290	-5.505708	 89.782140	 78.203890	 180.000000	-43.989350	-1.580050	 99.337220	 15.303720	-6.639177	 117.242600	-9.656200	 10.412470	 10.590150	 5.716295	 19.173350	-3.684826	 5.027458	 0.246833	-9.377971	-2.350882	 35.473990	 5.254307
-0.725050	-0.030792	 1.270998	 166.892400	-10.124210	 0.762241	-33.579480	 0.388255	-166.096900	-0.373723	-27.958580	-0.861634	 12.971480	 72.639870	-28.699990	-2.385833	 28.452760	 0.000004	-0.715833	 0.714388	-177.669300	 12.281850	-33.488830	 6.975384	-82.421110	 83.345890	 83.087880	 2.384659	 28.388700	-0.000001	 22.152320	 1.357668	-18.170410	 12.508860	 13.467910	-9.961740	 12.341310	-8.891174	 14.837890	-91.776250	 78.527400	-179.999900	-38.618540	 34.708390	-51.808430	-29.525000	 19.535140	-59.520450	-44.552450	-38.501310	-24.686270	-4.130354	 21.526190	 0.991307	-5.167926	 0.731697	 3.519349	-1.378229	 35.397820	-2.634230	 13.945250	 4.866084	-4.521511	 7.683336	-20.945930	-6.541496	 89.782170	 78.203890	 179.999900	-40.496530	-1.513930	 101.650900	 15.130900	-8.008904	 112.073800	-12.783370	 10.515340	 10.766570	 5.716295	 19.173350	-3.684826	 5.027458	 0.246833	-9.377971	-2.350882	 35.473990	 5.254307
-0.726131	-0.028382	 1.271927	 166.853100	-9.321332	 1.249333	-34.508250	-0.299788	-166.612500	-0.103323	-28.083230	-0.737754	 13.353940	 72.444150	-29.054840	-2.385833	 28.452760	 0.000004	-1.418137	-0.119417	-177.712300	 12.671220	-33.811200	 7.258168	-87.058320	 83.826320	 87.635830	 2.384659	 28.388700	-0.000001	 23.445210	-1.260559	-18.288990	 14.029480	 14.091420	-10.760580	 11.981110	-9.335734	 14.971970	-91.776230	 78.527420	-180.000000	-36.775920	 33.926110	-57.911860	-30.413000	 18.624710	-56.304460	-43.769800	-38.445610	-23.524250	-4.130354	 21.526190	 0.991307	-5.167926	 0.731697	 3.519349	-1.378229	 35.397820	-2.634230	 13.412540	 4.113768	-4.265021	 7.121469	-21.098990	-7.986488	 89.782050	 78.203900	-180.000000	-36.452700	-0.115739	 104.184000	 14.548670	-9.148337	 106.240400	-14.837350	 11.121230	 11.100010	 5.716295	 19.173350	-3.684826	 5.027458	 0.246833	-9.377971	-2.350882	 35.473990	 5.254307
-0.727511	-0.024457	 1.272499	 166.881100	-8.650072	 1.711840	-35.486770	-1.069253	-166.900600	 0.235480	-28.183410	-0.580093	 13.187680	 72.092050	-28.928870	-2.385833	 28.452760	 0.000004	-2.101542	-0.838866	-177.519400	 13.052030	-34.167770	 7.546360	-90.738520	 84.266430	 91.216370	 2.384659	 28.388700	-0.000001	 24.603420	-3.568254	-18.094760	 15.467820	 14.400330	-11.575460	 11.599660	-9.671148	 15.039980	-91.776170	 78.527380	-180.000000	-34.741010	 33.033020	-63.212260	-31.152050	 17.688220	-53.299590	-42.832420	-38.340370	-22.268790	-4.130354	 21.526190	 0.991307	-5.167926	 0.731697	 3.519349	-1.378229	 35.397820	-2.634230	 12.951480	 3.850790	-4.080996	 6.597468	-21.686130	-9.281574	 89.782090	 78.203870	-180.000000	-32.346470	 2.430741	 106.260700	 13.797460	-10.216720	 100.595600	-16.379810	 12.504640	 11.817000	 5.716295	 19.173350	-3.684826	 5.027458	 0.246833	-9.377971	-2.350882	 35.473990	 5.254307
